<svg height="20" viewBox="0 0 13 20" width="13" xmlns="http://www.w3.org/2000/svg"><path d="m3.059 0v2.308h-3.059v15.384h3.059v2.308h1.53v-2.308h1.529v2.308h1.53v-2.308h1.146c2.315 0 4.206-1.902 4.206-4.23a4.248 4.248 0 0 0 -2.199-3.726 4.25 4.25 0 0 0 1.434-3.198c0-2.328-1.89-4.23-4.206-4.23h-.382v-2.308h-1.53v2.308h-1.528v-2.308zm-1.53 3.846h6.5a2.672 2.672 0 0 1 2.677 2.692 2.672 2.672 0 0 1 -2.677 2.693h-6.5zm0 6.923h7.265a2.672 2.672 0 0 1 2.677 2.693 2.672 2.672 0 0 1 -2.677 2.692h-7.264v-5.385z" fill="#73fdea"/></svg>