<svg height="22" viewBox="0 0 18 22" width="18" xmlns="http://www.w3.org/2000/svg"><path d="m17.182 0h-13.705a.201.201 0 0 0 -.204.196v1.375c0 .108.092.197.204.197h12.683v16.892c0 .108.092.196.205.196h1.431a.201.201 0 0 0 .205-.196v-17.874c-.001-.436-.367-.786-.819-.786zm-3.273 3.143h-13.089c-.453 0-.819.351-.819.786v13.03c0 .209.087.408.24.555l4.431 4.255c.057.054.12.098.19.135v.047h.107c.09.032.184.049.281.049h8.66c.453 0 .818-.351.818-.786v-17.284c0-.435-.365-.786-.818-.786zm-8.962 16.392-2.29-2.2h2.29zm7.94.697h-6.394v-3.486c0-.543-.457-.983-1.022-.983h-3.631v-10.852h11.045v15.321z" fill="#73fdea"/></svg>