<svg height="26" viewBox="0 0 26 26" width="26" xmlns="http://www.w3.org/2000/svg"><path d="m22.2 7.68c-1.098.881-2.683.795-3.679-.201s-1.082-2.58-.201-3.679l-2.8-2.8-14.52 14.52 2.8 2.8c1.098-.881 2.683-.795 3.679.201s1.082 2.58.201 3.679l2.8 2.8 14.52-14.52zm-9.76 10.92c-.467.457-1.213.457-1.68 0l-3.36-3.36c-.457-.467-.457-1.213 0-1.68l6.16-6.16c.467-.457 1.213-.457 1.68 0l3.36 3.36c.457.467.457 1.213 0 1.68z" fill="none" stroke="#73fdea" stroke-linecap="round" stroke-linejoin="round" stroke-width="1.2"/></svg>