<svg height="27" viewBox="0 0 20 27" width="20" xmlns="http://www.w3.org/2000/svg"><path d="m9.59 9.47c.453 0 .819-.37.819-.826a.822.822 0 0 0 -.818-.826.822.822 0 0 0 -.818.826c0 .456.366.826.818.826zm1.637 4.959c.452 0 .818-.37.818-.827a.822.822 0 0 0 -.818-.826.822.822 0 0 0 -.818.826c0 .457.366.827.818.827zm-5.318 6.61c.452 0 .818-.37.818-.826a.822.822 0 0 0 -.818-.826.822.822 0 0 0 -.818.826c0 .457.366.827.818.827zm6.545 2.067c.904 0 1.637-.74 1.637-1.653s-.733-1.653-1.637-1.653c-.903 0-1.636.74-1.636 1.653s.733 1.653 1.636 1.653zm4.076-6.196-3.043-6.177a2.083 2.083 0 0 1 -.214-.922v-8.604h-6.546v8.605c0 .319-.073.634-.214.92l-3.042 6.178m13.059 0h-13.06l-2.085 4.237a3.31 3.31 0 0 0 -.346 2.058 3.357 3.357 0 0 0 3.343 2.795h11.226c1.749.023 3.222-1.316 3.384-3.074a3.307 3.307 0 0 0 -.375-1.78zm-11.03-15.703h9" fill="none" stroke="#73fdea" stroke-linecap="round" stroke-linejoin="round" stroke-width="1.5"/></svg>