<svg height="36" viewBox="0 0 36 36" width="36" xmlns="http://www.w3.org/2000/svg"><g fill="none" fill-rule="evenodd" transform="translate(1 1)"><circle cx="17" cy="17" fill="#73fdea" r="17" stroke="#73fdea" stroke-linecap="round" stroke-linejoin="round" stroke-width="1.5"/><path d="m8.01 17.29a.408.408 0 0 0 .037.164c.008.018.014.034.024.05a.431.431 0 0 0 .15.153c0 .001 0 .002.002.002l8.587 4.932c.007.004.015.002.022.006.062.03.13.054.205.054a.451.451 0 0 0 .206-.056c.008-.003.017-.002.025-.005l8.434-4.933a.437.437 0 0 0 .173-.203.44.44 0 0 0 .039-.164c0-.012.008-.022.007-.033 0-.005-.005-.009-.006-.014a.424.424 0 0 0 -.058-.188l-8.435-13.84c-.003-.006-.009-.008-.012-.014a.692.692 0 0 0 -.085-.092c-.013-.01-.025-.023-.04-.032-.006-.004-.009-.01-.015-.013-.01-.005-.02-.005-.03-.011a.5.5 0 0 0 -.173-.047c-.01 0-.02-.006-.03-.006s-.018.006-.03.006c-.017.002-.035.002-.053.005-.02.003-.04.01-.06.017a.322.322 0 0 0 -.061.025c-.01.004-.02.004-.028.01-.006.003-.008.009-.014.011a.323.323 0 0 0 -.044.035.408.408 0 0 0 -.05.049c-.01.013-.023.025-.032.04l-.014.014-8.586 13.84a.418.418 0 0 0 -.06.19c0 .006-.004.01-.005.016.001.01.009.021.01.032zm9.475-12.256 6.858 11.255-6.858-3.083zm-.897 8.17-7.001 3.092 7.001-11.286v8.193zm0 .965v7.275l-7.161-4.113zm.897 7.268v-7.264l7.022 3.158zm8.396-2.643a.459.459 0 0 0 -.558-.08l-8.287 4.795-8.282-4.795a.46.46 0 0 0 -.56.08.433.433 0 0 0 -.036.553l8.512 11.753c.007.009.018.012.025.02.018.021.035.04.055.056.01.008.016.02.026.028.008.006.02.003.028.009.015.008.027.02.043.028.058.027.12.044.188.044h.005c.067 0 .13-.018.188-.044.016-.008.028-.02.043-.028.009-.006.02-.003.028-.009.01-.007.017-.019.026-.028a.44.44 0 0 0 .055-.056c.007-.008.018-.011.025-.02l8.515-11.754a.438.438 0 0 0 -.04-.553zm-9.293 5.478v5.195l-6.478-8.947 6.478 3.751zm.897 5.194v-5.194l6.48-3.75z" fill="#212d3f"/></g></svg>