<svg height="16" viewBox="0 0 27 16" width="27" xmlns="http://www.w3.org/2000/svg"><path d="m4.75 5.427c2.083-2.08 3.463-2.913 5.417-2.913 2.083 0 3.936-.326 5-.832 1.128-.538 2.352-1.033 3.038-.347.833.832-.13 2.414-2.622 3.26m-10.833 8.323c.685 0 1.792.435 3.333 1.249a6.615 6.615 0 0 0 3.334.832h4.583a1.253 1.253 0 0 0 1.25-1.249c0-.31-.116-.608-.325-.837m-3.008-8.318h10.833c.69.002 1.248.56 1.25 1.248a1.253 1.253 0 0 1 -1.25 1.249h-7.5m-.417 2.913a1.37 1.37 0 0 1 1.25 1.456 1.37 1.37 0 0 1 -1.25 1.457h-.833m2.917-5.826v.832c0 1.249-.747 2.08-1.667 2.08h-.833m-15.417-5.409h3.75v9.573h-3.75z" fill="none" stroke="#73fdea" stroke-linecap="round" stroke-linejoin="round" stroke-width="1.2"/></svg>