<svg height="26" viewBox="0 0 26 26" width="26" xmlns="http://www.w3.org/2000/svg"><g fill="none" fill-rule="evenodd" transform="translate(1 1)"><circle cx="12" cy="12" r="12" stroke="#73fdea" stroke-linecap="round" stroke-linejoin="round" stroke-width="1.5"/><path d="m8.802 17.6a.8.8 0 1 1 .001 1.602.8.8 0 0 1 -.001-1.602zm6.4 0a.8.8 0 1 1 .001 1.602.8.8 0 0 1 -.001-1.602zm-6.405-12.8c.22 0 .407.076.563.229a.779.779 0 0 1 .242.559v3.6c.679-.516 1.478-.773 2.398-.773a3.87 3.87 0 0 1 1.529.308c.482.205.908.483 1.276.836.367.352.659.767.873 1.245.215.477.322.986.322 1.526v3.682a.779.779 0 0 1 -.241.56.776.776 0 0 1 -.564.228.776.776 0 0 1 -.563-.229.752.752 0 0 1 -.234-.559v-3.682c0-.32-.063-.622-.191-.908a2.416 2.416 0 0 0 -1.28-1.252 2.326 2.326 0 0 0 -.927-.188c-.332 0-.642.062-.931.184a2.445 2.445 0 0 0 -.762.506c-.22.216-.393.465-.518.75a2.232 2.232 0 0 0 -.187.908v3.682c0 .22-.078.407-.234.56a.785.785 0 0 1 -.571.228.776.776 0 0 1 -.563-.229.752.752 0 0 1 -.234-.559v-10.425c0-.22.078-.406.234-.558a.776.776 0 0 1 .563-.229z" fill="#73fdea" fill-rule="nonzero"/></g></svg>