<svg height="104" viewBox="0 0 104 104" width="104" xmlns="http://www.w3.org/2000/svg"><g fill="none" fill-rule="evenodd" transform="translate(2 2)"><circle cx="50" cy="50" fill="#090c15" r="50" stroke="#73fdea" stroke-width="4"/><path d="m41.793 28c2.663 0 5.035.58 7.115 1.74s3.724 2.735 4.931 4.724c1.136 1.872 1.737 4.02 1.804 6.442l.006.457v19.02c0 .663.167 1.274.5 1.833.332.56.759.995 1.279 1.305.52.311 1.092.467 1.716.467.666 0 1.28-.156 1.841-.467.562-.31 1.01-.745 1.342-1.305.292-.49.455-1.018.492-1.587l.008-.246-.054-19.088h10.227v18.342c0 2.569-.603 4.869-1.81 6.899s-2.85 3.615-4.93 4.755c-2.082 1.139-4.433 1.709-7.054 1.709-2.622 0-4.973-.57-7.053-1.71-2.08-1.139-3.724-2.724-4.93-4.754-1.136-1.911-1.738-4.06-1.804-6.449l-.007-.45v-19.02c0-.663-.166-1.263-.499-1.802s-.77-.974-1.31-1.305c-.542-.332-1.145-.498-1.81-.498-.666 0-1.27.166-1.81.498-.542.331-.968.766-1.28 1.305-.273.471-.427.99-.46 1.557l-.008.245v19.088h-10.235v-18.342c0-2.61.593-4.91 1.779-6.899s2.83-3.563 4.93-4.724c2.102-1.16 4.463-1.74 7.084-1.74zm-3.566 34.773v10.227h-10.227v-10.227zm34.773-34.773v10.227h-10.227v-10.227z" fill="#73fdea" fill-rule="nonzero"/></g></svg>