<svg height="42" viewBox="0 0 42 42" width="42" xmlns="http://www.w3.org/2000/svg"><path d="m33 9.276c2.21 0 4-1.853 4-4.138s-1.79-4.138-4-4.138-4 1.853-4 4.138 1.79 4.138 4 4.138zm-4 17.93v8.966c0 1.143.895 2.07 2 2.07h4c1.105 0 2-.927 2-2.07v-8.965h2c1.105 0 2-.926 2-2.07v-9.654c0-1.143-.895-2.07-2-2.07h-12c-1.105 0-2 .927-2 2.07v.69m-16-6.898c2.21 0 4-1.853 4-4.138s-1.79-4.137-4-4.137-4 1.853-4 4.138 1.79 4.138 4 4.138zm8 6.207c0-1.143-.895-2.07-2-2.07h-12c-1.105 0-2 .927-2 2.07v9.655c0 1.143.895 2.069 2 2.069h2v8.965c0 1.143.895 2.07 2 2.07h4c1.105 0 2-.927 2-2.07v-8.965m8-15.173c2.21 0 4-1.852 4-4.137 0-2.286-1.79-4.138-4-4.138s-4 1.852-4 4.138c0 2.285 1.79 4.137 4 4.137zm6 4.138h-12c-1.105 0-2 .927-2 2.07v9.655c0 1.142.895 2.069 2 2.069h2v8.965c0 1.143.895 2.069 2 2.069h4c1.105 0 2-.926 2-2.069v-8.965h2c1.105 0 2-.927 2-2.07v-9.655c0-1.142-.895-2.069-2-2.069z" fill="none" stroke="#8b9699" stroke-linecap="round" stroke-linejoin="round" stroke-width="2"/></svg>