<svg xmlns="http://www.w3.org/2000/svg" width="88" height="88" viewBox="0 0 88 88">
    <g fill="none" fill-rule="evenodd" stroke="#FFF">
        <path stroke-width="2.52" d="M26.229 2H61.77c8.425 0 11.48.877 14.56 2.524a17.173 17.173 0 0 1 7.145 7.145C85.123 14.749 86 17.804 86 26.229V61.77c0 8.425-.877 11.48-2.524 14.56a17.173 17.173 0 0 1-7.145 7.145C73.251 85.123 70.196 86 61.771 86H26.23c-8.425 0-11.48-.877-14.56-2.524a17.173 17.173 0 0 1-7.145-7.145C2.877 73.251 2 70.196 2 61.771V26.23c0-8.425.877-11.48 2.524-14.56a17.173 17.173 0 0 1 7.145-7.145C14.749 2.877 17.804 2 26.229 2z"/>
        <path stroke-linecap="round" stroke-linejoin="round" stroke-width="2" d="M23.74 41.251l-2.052-5.642a2.203 2.203 0 0 1 .052-1.703 2.23 2.23 0 0 1 1.253-1.164l37.858-13.597a2.255 2.255 0 0 1 1.716.052c.543.243.965.69 1.175 1.243l8.112 22.199a2.203 2.203 0 0 1-.052 1.702 2.23 2.23 0 0 1-1.254 1.165l-9.79 3.515m-37.205-8.51L65.42 25.342m-7.74 9.065l4.197-1.48M18.4 41.25h39.958a2.4 2.4 0 0 1 2.4 2.4V66.6a2.4 2.4 0 0 1-2.4 2.4H18.4a2.4 2.4 0 0 1-2.4-2.4V43.651a2.4 2.4 0 0 1 2.4-2.4zm5.06 12.95h13.054m11.19-5.55h5.594M23.46 61.601h1.865m7.46 0h1.864m7.46 0h1.865m7.46 0h1.864"/>
    </g>
</svg>
