<svg height="30" viewBox="0 0 30 30" width="30" xmlns="http://www.w3.org/2000/svg"><path d="m15 29c7.732 0 14-6.268 14-14s-6.268-14-14-14-14 6.268-14 14 6.268 14 14 14zm6.487-6.44c-1.639-1.85-3.992-2.91-6.464-2.91-2.471 0-4.824 1.06-6.463 2.91m1.773-8.493c.516 0 .934-.418.934-.934 0-.515-.418-.933-.934-.933-.515 0-.933.418-.933.933 0 .516.418.934.933.934zm9.334 0c.515 0 .933-.418.933-.934 0-.515-.418-.933-.933-.933-.516 0-.934.418-.934.933 0 .516.418.934.934.934zm-7.467-1.867-3.733-1.867m13.066 0-3.733 1.867" fill="none" stroke="#f5222d" stroke-linecap="round" stroke-linejoin="round" stroke-width="1.5"/></svg>