<svg height="60" viewBox="0 0 60 60" width="60" xmlns="http://www.w3.org/2000/svg"><g fill="none" fill-rule="evenodd"><path d="m17.306 0h25.388c6.018 0 8.2.627 10.4 1.803a12.267 12.267 0 0 1 5.103 5.103c1.176 2.2 1.803 4.382 1.803 10.4v25.388c0 6.018-.627 8.2-1.803 10.4a12.267 12.267 0 0 1 -5.103 5.103c-2.2 1.176-4.382 1.803-10.4 1.803h-25.388c-6.018 0-8.2-.627-10.4-1.803a12.267 12.267 0 0 1 -5.103-5.103c-1.176-2.2-1.803-4.382-1.803-10.4v-25.388c0-6.018.627-8.2 1.803-10.4a12.267 12.267 0 0 1 5.103-5.103c2.2-1.176 4.382-1.803 10.4-1.803z" fill="#0ab06a"/><path d="m23.34 32.7 13.32 6.6m0-18.6-13.32 6.6m-5.34 8.7a6 6 0 1 0 0-12 6 6 0 0 0 0 12zm24-12a6 6 0 1 0 0-12 6 6 0 0 0 0 12zm0 24a6 6 0 1 0 0-12 6 6 0 0 0 0 12z" stroke="#fff" stroke-linecap="round" stroke-linejoin="round" stroke-width="1.8"/></g></svg>