<svg height="17" viewBox="0 0 14 17" width="14" xmlns="http://www.w3.org/2000/svg"><path d="m6.308.106c.187-.167.312-.143.25.119 0 .285-.084.547-.104.832-.042.428-.063.88-.042 1.308.02.571.104 1.142.291 1.689.125.404.333.785.5 1.19.5 1.14.978 2.283 1.436 3.448.25.619.5 1.237.728 1.88.208.546.458 1.117.5 1.712.083 1.45-.895 2.687-1.749 3.615-.312.357-.666.714-1.02 1.023-.083.071-.166.143-.187-.024-.02-.214.104-.5.146-.714.187-.737.416-1.57.375-2.354-.042-.642-.27-1.285-.479-1.856-.583-1.617-1.374-3.115-1.977-4.709-.312-.833-.604-1.689-.812-2.545-.166-.714-.125-1.427.188-2.117.437-.975 1.227-1.808 1.956-2.497zm-4.62 1.807c.145-.119.25-.071.229.072-.021.261-.084.5-.104.76-.042.358-.042.69-.021 1.047.02.452.104.88.25 1.285.145.38.312.76.478 1.118.416.999.833 1.998 1.228 2.997.187.5.375.975.541 1.474.167.524.25 1.023.104 1.57-.291 1.094-1.082 1.903-1.81 2.617-.125.118-.48.547-.396.118.104-.642.291-1.26.375-1.902.104-.904-.333-1.856-.645-2.664-.396-1.023-.854-1.998-1.27-2.997-.416-.976-.853-2.093-.541-3.188.27-.927.936-1.688 1.582-2.307zm9.531 0c.146-.119.25-.071.23.072-.022.261-.084.5-.105.76-.041.358-.041.69-.02 1.047.02.452.103.88.25 1.285.145.38.311.76.478 1.118.416.999.832 1.998 1.228 2.997.187.5.374.975.54 1.474.167.524.25 1.023.105 1.57-.291 1.094-1.082 1.903-1.81 2.617-.126.118-.48.547-.396.118.104-.642.291-1.26.374-1.902.105-.904-.333-1.856-.645-2.664-.395-1.023-.853-1.998-1.27-2.997-.415-.976-.852-2.093-.54-3.188.27-.927.936-1.688 1.581-2.307z" fill="#73fdea"/></svg>