<svg height="60" viewBox="0 0 60 60" width="60" xmlns="http://www.w3.org/2000/svg"><g fill="none" fill-rule="evenodd"><path d="m17.306 0h25.388c6.018 0 8.2.627 10.4 1.803a12.267 12.267 0 0 1 5.103 5.103c1.176 2.2 1.803 4.382 1.803 10.4v25.388c0 6.018-.627 8.2-1.803 10.4a12.267 12.267 0 0 1 -5.103 5.103c-2.2 1.176-4.382 1.803-10.4 1.803h-25.388c-6.018 0-8.2-.627-10.4-1.803a12.267 12.267 0 0 1 -5.103-5.103c-1.176-2.2-1.803-4.382-1.803-10.4v-25.388c0-6.018.627-8.2 1.803-10.4a12.267 12.267 0 0 1 5.103-5.103c2.2-1.176 4.382-1.803 10.4-1.803z" fill="#f5a623"/><path d="m40.8 38.4v-21.6a4.8 4.8 0 0 0 -4.8-4.8h-19.68c2.64 0 4.08 2.16 4.08 4.8v26.4a4.8 4.8 0 0 0 4.8 4.8m18-9.6h-18a4.8 4.8 0 1 1 0 9.6h18a4.8 4.8 0 1 0 0-9.6zm-26.88-26.4c-2.64 0-4.32 2.16-4.32 4.8h8.4m6 2.4h8.4m-8.4 6h8.4m-8.4 6h8.4" stroke="#fff" stroke-linecap="round" stroke-linejoin="round" stroke-width="1.8"/></g></svg>