<svg height="42" viewBox="0 0 42 42" width="42" xmlns="http://www.w3.org/2000/svg"><path d="m26.26 15.667c-.435-2.566-2.657-4.445-5.26-4.444-2.945 0-5.333 1.942-5.333 4.888s2.666 4.28 5.333 4.89c2.667.6 5.333 1.944 5.333 4.889s-2.388 4.889-5.333 4.889c-2.946 0-5.333-2.388-5.333-5.334m5.5-14.222v-3.557m0 26.669v-3.557m-.167 10.222c11.046 0 20-8.954 20-20s-8.954-20-20-20-20 8.954-20 20 8.954 20 20 20z" fill="none" stroke="#8b9699" stroke-linecap="round" stroke-linejoin="round" stroke-width="2"/></svg>