<svg height="26" viewBox="0 0 26 26" width="26" xmlns="http://www.w3.org/2000/svg"><path d="m16.515 13.759a4.953 4.953 0 0 0 -8.428-2.876l-5.631 5.632a4.97 4.97 0 0 0 7.03 7.03l5.63-5.632a4.953 4.953 0 0 0 1.12-1.678m-2.437.32-.08.08-5.552 5.471a3.035 3.035 0 0 1 -4.273-4.273l5.511-5.552a3.035 3.035 0 0 1 5.193 2.317m-5.113-2.358a4.953 4.953 0 0 0 8.428 2.876l5.631-5.632a4.97 4.97 0 1 0 -7.03-7.03l-5.63 5.632a4.953 4.953 0 0 0 -1.12 1.678m2.437-.32.08-.08 5.552-5.471a3.035 3.035 0 0 1 4.273 4.273l-5.511 5.552a3.035 3.035 0 0 1 -5.193-2.317" fill="none" stroke="#73fdea" stroke-linecap="round" stroke-linejoin="round" stroke-width="1.2"/></svg>