<svg height="20" viewBox="0 0 10 20" width="10" xmlns="http://www.w3.org/2000/svg"><path d="m4.167 0v1.61c-2.364.368-4.167 2.276-4.167 4.545 0 1.367.693 2.422 1.615 3.1.92.68 2.03 1.059 3.072 1.443 1.042.385 2.015.775 2.657 1.25.641.475.99.956.99 1.9 0 1.658-1.495 3.076-3.334 3.076-1.849 0-3.333-1.37-3.333-3.077v-.77h-1.667v.77c0 2.28 1.803 4.177 4.167 4.543v1.61h1.666v-1.61c2.37-.37 4.167-2.294 4.167-4.545 0-1.37-.693-2.419-1.615-3.1-.92-.683-2.03-1.083-3.072-1.467-1.042-.385-2.015-.754-2.657-1.226-.641-.472-.99-.962-.99-1.9 0-1.685 1.488-3.076 3.334-3.076 1.849 0 3.333 1.37 3.333 3.077v.77h1.667v-.77c0-2.28-1.803-4.177-4.167-4.543v-1.61z" fill="#73fdea"/></svg>